<svg width="700" height="700" viewBox="0 0 700 700" fill="none" xmlns="http://www.w3.org/2000/svg">
<rect width="700" height="700" fill="black"/>
<path d="M614.84 316.61C623.8 316.61 631.78 318.43 638.78 322.07C645.92 325.57 651.52 331.03 655.58 338.45C659.64 345.73 661.67 355.11 661.67 366.59V431.27H628.91V371.63C628.91 362.53 626.88 355.81 622.82 351.47C618.9 347.13 613.3 344.96 606.02 344.96C600.84 344.96 596.15 346.08 591.95 348.32C587.89 350.42 584.67 353.71 582.29 358.19C580.05 362.67 578.93 368.41 578.93 375.41V431.27H546.17V282H578.93V349.58L571.58 340.13C575.64 332.57 581.45 326.76 589.01 322.7C596.57 318.64 605.18 316.61 614.84 316.61Z" fill="#FFE433"/>
<path d="M498.313 432.95C486.133 432.95 475.283 430.5 465.763 425.6C456.243 420.56 448.753 413.63 443.293 404.81C437.973 395.99 435.313 385.98 435.313 374.78C435.313 363.44 437.973 353.43 443.293 344.75C448.753 335.93 456.243 329.07 465.763 324.17C475.283 319.13 486.133 316.61 498.313 316.61C510.213 316.61 520.573 319.13 529.393 324.17C538.213 329.07 544.723 336.14 548.923 345.38L523.513 359.03C520.573 353.71 516.863 349.79 512.383 347.27C508.043 344.75 503.283 343.49 498.103 343.49C492.503 343.49 487.463 344.75 482.983 347.27C478.503 349.79 474.933 353.36 472.273 357.98C469.753 362.6 468.493 368.2 468.493 374.78C468.493 381.36 469.753 386.96 472.273 391.58C474.933 396.2 478.503 399.77 482.983 402.29C487.463 404.81 492.503 406.07 498.103 406.07C503.283 406.07 508.043 404.88 512.383 402.5C516.863 399.98 520.573 395.99 523.513 390.53L548.923 404.39C544.723 413.49 538.213 420.56 529.393 425.6C520.573 430.5 510.213 432.95 498.313 432.95Z" fill="#FFE433"/>
<path d="M423.139 432.95C409.839 432.95 399.479 429.59 392.059 422.87C384.639 416.01 380.929 405.86 380.929 392.42V293.3H413.689V392C413.689 396.76 414.949 400.47 417.469 403.13C419.989 405.65 423.419 406.91 427.759 406.91C432.939 406.91 438.36 404.3 442 401.5L462.5 421.5C459.236 424.387 442.531 430.459 437.629 431.27C433.009 432.39 428.179 432.95 423.139 432.95ZM363.5 343.49V318.29H441.5V343.49H363.5Z" fill="#FFE433"/>
<path d="M334.775 431.27V318.29H367.535V431.27H334.775ZM351.155 302.54C345.135 302.54 340.235 300.79 336.455 297.29C332.675 293.79 330.785 289.45 330.785 284.27C330.785 279.09 332.675 274.75 336.455 271.25C340.235 267.75 345.135 266 351.155 266C357.175 266 362.075 267.68 365.855 271.04C369.635 274.26 371.525 278.46 371.525 283.64C371.525 289.1 369.635 293.65 365.855 297.29C362.215 300.79 357.315 302.54 351.155 302.54Z" fill="#FFE433"/>
<path d="M184.935 431.27L146 324L175.065 318.29L208.875 415.52H194.175L229.455 318.29H257.175L291.405 415.52H276.705L311.565 318.29H340.545L299.595 431.27H267.885L237.855 347.9H247.515L216.435 431.27H184.935Z" fill="#FFE433"/>
<path d="M65.04 429.17C75.82 432.25 87.09 433.79 98.85 433.79C112.85 433.79 124.4 431.69 133.5 427.49C142.74 423.29 149.67 417.76 154.29 410.9C158.91 404.04 161.22 396.48 161.22 388.22C161.22 380.52 159.61 374.15 156.39 369.11C153.31 364.07 149.25 360.01 144.21 356.93C139.17 353.85 133.57 351.4 127.41 349.58C121.39 347.76 115.3 346.15 109.14 344.75C103.12 343.35 97.59 341.95 92.55 340.55C87.51 339.15 83.45 337.33 80.37 335.09C77.29 332.71 75.75 329.63 75.75 325.85C75.75 322.63 76.66 319.83 78.48 317.45C80.3 314.93 83.31 312.9 87.51 311.36C91.71 309.82 97.1 309.05 103.68 309.05C128.296 309.9 140.528 313.735 147.859 329.113L175.5 319.5C165.699 293.193 140.522 287.296 131.39 285.157L131.19 285.11C122.23 282.87 113.13 281.75 103.89 281.75C90.03 281.75 78.48 283.85 69.24 288.05C60.14 292.11 53.28 297.64 48.66 304.64C44.18 311.5 41.94 319.13 41.94 327.53C41.94 335.37 43.48 341.81 46.56 346.85C49.78 351.89 53.91 355.95 58.95 359.03C63.99 362.11 69.52 364.63 75.54 366.59C81.7 368.55 87.79 370.23 93.81 371.63C99.97 372.89 105.57 374.29 110.61 375.83C115.65 377.23 119.71 379.12 122.79 381.5C125.87 383.74 127.41 386.82 127.41 390.74C127.41 393.82 126.43 396.55 124.47 398.93C122.51 401.31 119.43 403.2 115.23 404.6C111.17 405.86 105.78 406.49 99.06 406.49C90.24 406.49 81.49 405.09 72.81 402.29C64.27 399.35 56.85 395.64 50.55 391.16L39 416.78C45.58 421.82 54.26 425.95 65.04 429.17Z" fill="#FFE433"/>
</svg>
