<svg width="91" height="39" viewBox="0 0 91 39" fill="none" xmlns="http://www.w3.org/2000/svg">
<path d="M2.99037 31V8.6H8.17437V26.776H19.4064V31H2.99037ZM26.2404 31.256C24.4057 31.256 22.7737 30.872 21.3444 30.104C19.9364 29.336 18.8164 28.2907 17.9844 26.968C17.1737 25.624 16.7684 24.0987 16.7684 22.392C16.7684 20.664 17.1737 19.1387 17.9844 17.816C18.8164 16.472 19.9364 15.4267 21.3444 14.68C22.7737 13.912 24.4057 13.528 26.2404 13.528C28.0537 13.528 29.675 13.912 31.1044 14.68C32.5337 15.4267 33.6537 16.4613 34.4644 17.784C35.275 19.1067 35.6804 20.6427 35.6804 22.392C35.6804 24.0987 35.275 25.624 34.4644 26.968C33.6537 28.2907 32.5337 29.336 31.1044 30.104C29.675 30.872 28.0537 31.256 26.2404 31.256ZM26.2404 27.16C27.0724 27.16 27.819 26.968 28.4804 26.584C29.1417 26.2 29.6644 25.656 30.0484 24.952C30.4324 24.2267 30.6244 23.3733 30.6244 22.392C30.6244 21.3893 30.4324 20.536 30.0484 19.832C29.6644 19.128 29.1417 18.584 28.4804 18.2C27.819 17.816 27.0724 17.624 26.2404 17.624C25.4084 17.624 24.6617 17.816 24.0004 18.2C23.339 18.584 22.8057 19.128 22.4004 19.832C22.0164 20.536 21.8244 21.3893 21.8244 22.392C21.8244 23.3733 22.0164 24.2267 22.4004 24.952C22.8057 25.656 23.339 26.2 24.0004 26.584C24.6617 26.968 25.4084 27.16 26.2404 27.16ZM42.4411 31.256C41.0118 31.256 39.7318 30.9787 38.6011 30.424C37.4918 29.8693 36.6278 29.0267 36.0091 27.896C35.3905 26.744 35.0811 25.2827 35.0811 23.512V13.784H40.0731V22.776C40.0731 24.2053 40.3718 25.2613 40.9691 25.944C41.5878 26.6053 42.4518 26.936 43.5611 26.936C44.3291 26.936 45.0118 26.776 45.6091 26.456C46.2065 26.1147 46.6758 25.6027 47.0171 24.92C47.3585 24.216 47.5291 23.3413 47.5291 22.296V13.784H52.5211V31H47.7851V26.264L48.6491 27.64C48.0731 28.8347 47.2198 29.7413 46.0891 30.36C44.9798 30.9573 43.7638 31.256 42.4411 31.256ZM60.3459 31.256C58.3192 31.256 56.7405 30.744 55.6099 29.72C54.4792 28.6747 53.9139 27.128 53.9139 25.08V9.976H58.9059V25.016C58.9059 25.7413 59.0979 26.3067 59.4819 26.712C59.8659 27.096 60.3885 27.288 61.0499 27.288C61.8392 27.288 62.5112 27.0747 63.0659 26.648L64.4099 30.168C63.8979 30.5307 63.2792 30.808 62.5539 31C61.8499 31.1707 61.1139 31.256 60.3459 31.256ZM51.2579 18.008V14.168H63.1939V18.008H51.2579ZM71.3849 31.256C69.4222 31.256 67.6942 30.872 66.2009 30.104C64.7289 29.336 63.5875 28.2907 62.7769 26.968C61.9662 25.624 61.5609 24.0987 61.5609 22.392C61.5609 20.664 61.9555 19.1387 62.7449 17.816C63.5555 16.472 64.6542 15.4267 66.0409 14.68C67.4275 13.912 68.9955 13.528 70.7449 13.528C72.4302 13.528 73.9449 13.8907 75.2889 14.616C76.6542 15.32 77.7315 16.344 78.5209 17.688C79.3102 19.0107 79.7049 20.6 79.7049 22.456C79.7049 22.648 79.6942 22.872 79.6729 23.128C79.6515 23.3627 79.6302 23.5867 79.6089 23.8H65.6249V20.888H76.9849L75.0649 21.752C75.0649 20.856 74.8835 20.0773 74.5209 19.416C74.1582 18.7547 73.6569 18.2427 73.0169 17.88C72.3769 17.496 71.6302 17.304 70.7769 17.304C69.9235 17.304 69.1662 17.496 68.5049 17.88C67.8649 18.2427 67.3635 18.7653 67.0009 19.448C66.6382 20.1093 66.4569 20.8987 66.4569 21.816V22.584C66.4569 23.5227 66.6595 24.3547 67.0649 25.08C67.4915 25.784 68.0782 26.328 68.8249 26.712C69.5929 27.0747 70.4889 27.256 71.5129 27.256C72.4302 27.256 73.2302 27.1173 73.9129 26.84C74.6169 26.5627 75.2569 26.1467 75.8329 25.592L78.4889 28.472C77.6995 29.368 76.7075 30.0613 75.5129 30.552C74.3182 31.0213 72.9422 31.256 71.3849 31.256ZM79.1884 31V13.784H83.9564V18.648L83.2844 17.24C83.7964 16.024 84.6177 15.1067 85.7484 14.488C86.879 13.848 88.255 13.528 89.8764 13.528V18.136C89.663 18.1147 89.471 18.104 89.3004 18.104C89.1297 18.0827 88.9484 18.072 88.7564 18.072C87.391 18.072 86.2817 18.4667 85.4284 19.256C84.5964 20.024 84.1804 21.2293 84.1804 22.872V31H79.1884Z" fill="#333333"/>
</svg>
