<svg width="700" height="287" viewBox="0 0 700 287" fill="none" xmlns="http://www.w3.org/2000/svg">
<path d="M614.84 110.61C623.8 110.61 631.78 112.43 638.78 116.07C645.92 119.57 651.52 125.03 655.58 132.45C659.64 139.73 661.67 149.11 661.67 160.59V225.27H628.91V165.63C628.91 156.53 626.88 149.81 622.82 145.47C618.9 141.13 613.3 138.96 606.02 138.96C600.84 138.96 596.15 140.08 591.95 142.32C587.89 144.42 584.67 147.71 582.29 152.19C580.05 156.67 578.93 162.41 578.93 169.41V225.27H546.17V76H578.93V143.58L571.58 134.13C575.64 126.57 581.45 120.76 589.01 116.7C596.57 112.64 605.18 110.61 614.84 110.61Z" fill="black"/>
<path d="M498.313 226.95C486.133 226.95 475.283 224.5 465.763 219.6C456.243 214.56 448.753 207.63 443.293 198.81C437.973 189.99 435.313 179.98 435.313 168.78C435.313 157.44 437.973 147.43 443.293 138.75C448.753 129.93 456.243 123.07 465.763 118.17C475.283 113.13 486.133 110.61 498.313 110.61C510.213 110.61 520.573 113.13 529.393 118.17C538.213 123.07 544.723 130.14 548.923 139.38L523.513 153.03C520.573 147.71 516.863 143.79 512.383 141.27C508.043 138.75 503.283 137.49 498.103 137.49C492.503 137.49 487.463 138.75 482.983 141.27C478.503 143.79 474.933 147.36 472.273 151.98C469.753 156.6 468.493 162.2 468.493 168.78C468.493 175.36 469.753 180.96 472.273 185.58C474.933 190.2 478.503 193.77 482.983 196.29C487.463 198.81 492.503 200.07 498.103 200.07C503.283 200.07 508.043 198.88 512.383 196.5C516.863 193.98 520.573 189.99 523.513 184.53L548.923 198.39C544.723 207.49 538.213 214.56 529.393 219.6C520.573 224.5 510.213 226.95 498.313 226.95Z" fill="black"/>
<path d="M423.139 226.95C409.839 226.95 399.479 223.59 392.059 216.87C384.639 210.01 380.929 199.86 380.929 186.42V87.2998H413.689V186C413.689 190.76 414.949 194.47 417.469 197.13C419.989 199.65 423.419 200.91 427.759 200.91C432.939 200.91 438.36 198.3 442 195.5L462.5 215.5C459.236 218.387 442.531 224.459 437.629 225.27C433.009 226.39 428.179 226.95 423.139 226.95ZM363.5 137.49V112.29H441.5V137.49H363.5Z" fill="black"/>
<path d="M334.775 225.27V112.29H367.535V225.27H334.775ZM351.155 96.54C345.135 96.54 340.235 94.79 336.455 91.29C332.675 87.79 330.785 83.45 330.785 78.27C330.785 73.09 332.675 68.75 336.455 65.25C340.235 61.75 345.135 60 351.155 60C357.175 60 362.075 61.68 365.855 65.04C369.635 68.26 371.525 72.46 371.525 77.64C371.525 83.1 369.635 87.65 365.855 91.29C362.215 94.79 357.315 96.54 351.155 96.54Z" fill="black"/>
<path d="M184.935 225.27L146 118L175.065 112.29L208.875 209.52H194.175L229.455 112.29H257.175L291.405 209.52H276.705L311.565 112.29H340.545L299.595 225.27H267.885L237.855 141.9H247.515L216.435 225.27H184.935Z" fill="black"/>
<path d="M65.04 223.17C75.82 226.25 87.09 227.79 98.85 227.79C112.85 227.79 124.4 225.69 133.5 221.49C142.74 217.29 149.67 211.76 154.29 204.9C158.91 198.04 161.22 190.48 161.22 182.22C161.22 174.52 159.61 168.15 156.39 163.11C153.31 158.07 149.25 154.01 144.21 150.93C139.17 147.85 133.57 145.4 127.41 143.58C121.39 141.76 115.3 140.15 109.14 138.75C103.12 137.35 97.59 135.95 92.55 134.55C87.51 133.15 83.45 131.33 80.37 129.09C77.29 126.71 75.75 123.63 75.75 119.85C75.75 116.63 76.66 113.83 78.48 111.45C80.3 108.93 83.31 106.9 87.51 105.36C91.71 103.82 97.1 103.05 103.68 103.05C128.296 103.9 140.528 107.735 147.859 123.113L175.5 113.5C165.699 87.193 140.522 81.2959 131.39 79.1567L131.19 79.11C122.23 76.87 113.13 75.75 103.89 75.75C90.03 75.75 78.48 77.85 69.24 82.05C60.14 86.11 53.28 91.64 48.66 98.64C44.18 105.5 41.94 113.13 41.94 121.53C41.94 129.37 43.48 135.81 46.56 140.85C49.78 145.89 53.91 149.95 58.95 153.03C63.99 156.11 69.52 158.63 75.54 160.59C81.7 162.55 87.79 164.23 93.81 165.63C99.97 166.89 105.57 168.29 110.61 169.83C115.65 171.23 119.71 173.12 122.79 175.5C125.87 177.74 127.41 180.82 127.41 184.74C127.41 187.82 126.43 190.55 124.47 192.93C122.51 195.31 119.43 197.2 115.23 198.6C111.17 199.86 105.78 200.49 99.06 200.49C90.24 200.49 81.49 199.09 72.81 196.29C64.27 193.35 56.85 189.64 50.55 185.16L39 210.78C45.58 215.82 54.26 219.95 65.04 223.17Z" fill="black"/>
</svg>
