<svg width="142" height="37" viewBox="0 0 142 37" fill="none" xmlns="http://www.w3.org/2000/svg">
<path d="M-1.69277e-05 36.3999V-0.000100136H8.42398V29.5359H26.676V36.3999H-1.69277e-05ZM37.7305 36.8159C34.7491 36.8159 32.0971 36.1919 29.7745 34.9439C27.4865 33.6959 25.6665 31.9972 24.3145 29.8479C22.9971 27.6639 22.3385 25.1852 22.3385 22.4119C22.3385 19.6039 22.9971 17.1252 24.3145 14.9759C25.6665 12.7919 27.4865 11.0932 29.7745 9.8799C32.0971 8.6319 34.7491 8.0079 37.7305 8.0079C40.6771 8.0079 43.3118 8.6319 45.6345 9.8799C47.9571 11.0932 49.7771 12.7746 51.0945 14.9239C52.4118 17.0732 53.0705 19.5692 53.0705 22.4119C53.0705 25.1852 52.4118 27.6639 51.0945 29.8479C49.7771 31.9972 47.9571 33.6959 45.6345 34.9439C43.3118 36.1919 40.6771 36.8159 37.7305 36.8159ZM37.7305 30.1599C39.0825 30.1599 40.2958 29.8479 41.3705 29.2239C42.4451 28.5999 43.2945 27.7159 43.9185 26.5719C44.5425 25.3932 44.8545 24.0066 44.8545 22.4119C44.8545 20.7826 44.5425 19.3959 43.9185 18.2519C43.2945 17.1079 42.4451 16.2239 41.3705 15.5999C40.2958 14.9759 39.0825 14.6639 37.7305 14.6639C36.3785 14.6639 35.1651 14.9759 34.0905 15.5999C33.0158 16.2239 32.1491 17.1079 31.4905 18.2519C30.8665 19.3959 30.5545 20.7826 30.5545 22.4119C30.5545 24.0066 30.8665 25.3932 31.4905 26.5719C32.1491 27.7159 33.0158 28.5999 34.0905 29.2239C35.1651 29.8479 36.3785 30.1599 37.7305 30.1599ZM64.0567 36.8159C61.734 36.8159 59.654 36.3652 57.8167 35.4639C56.014 34.5626 54.61 33.1932 53.6047 31.3559C52.5993 29.4839 52.0967 27.1092 52.0967 24.2319V8.4239H60.2087V23.0359C60.2087 25.3586 60.694 27.0746 61.6647 28.1839C62.67 29.2586 64.074 29.7959 65.8767 29.7959C67.1247 29.7959 68.234 29.5359 69.2047 29.0159C70.1753 28.4612 70.938 27.6292 71.4927 26.5199C72.0473 25.3759 72.3247 23.9546 72.3247 22.2559V8.4239H80.4367V36.3999H72.7407V28.7039L74.1447 30.9399C73.2087 32.8812 71.822 34.3546 69.9847 35.3599C68.182 36.3306 66.206 36.8159 64.0567 36.8159ZM93.1519 36.8159C89.8586 36.8159 87.2932 35.9839 85.4559 34.3199C83.6186 32.6212 82.6999 30.1079 82.6999 26.7799V2.2359H90.8119V26.6759C90.8119 27.8546 91.1239 28.7732 91.7479 29.4319C92.3719 30.0559 93.2212 30.3679 94.2959 30.3679C95.5786 30.3679 96.6706 30.0212 97.5719 29.3279L99.7559 35.0479C98.9239 35.6372 97.9186 36.0879 96.7399 36.3999C95.5959 36.6772 94.3999 36.8159 93.1519 36.8159ZM78.3839 15.2879V9.0479H97.7799V15.2879H78.3839ZM111.09 36.8159C107.901 36.8159 105.093 36.1919 102.666 34.9439C100.274 33.6959 98.4196 31.9972 97.1023 29.8479C95.7849 27.6639 95.1263 25.1852 95.1263 22.4119C95.1263 19.6039 95.7676 17.1252 97.0503 14.9759C98.3676 12.7919 100.153 11.0932 102.406 9.8799C104.66 8.6319 107.208 8.0079 110.05 8.0079C112.789 8.0079 115.25 8.59724 117.434 9.7759C119.653 10.9199 121.404 12.5839 122.686 14.7679C123.969 16.9172 124.61 19.4999 124.61 22.5159C124.61 22.8279 124.593 23.1919 124.558 23.6079C124.524 23.9892 124.489 24.3532 124.454 24.6999H101.73V19.9679H120.19L117.07 21.3719C117.07 19.9159 116.776 18.6506 116.186 17.5759C115.597 16.5012 114.782 15.6692 113.742 15.0799C112.702 14.4559 111.489 14.1439 110.102 14.1439C108.716 14.1439 107.485 14.4559 106.41 15.0799C105.37 15.6692 104.556 16.5186 103.966 17.6279C103.377 18.7026 103.082 19.9852 103.082 21.4759V22.7239C103.082 24.2492 103.412 25.6012 104.07 26.7799C104.764 27.9239 105.717 28.8079 106.93 29.4319C108.178 30.0212 109.634 30.3159 111.298 30.3159C112.789 30.3159 114.089 30.0906 115.198 29.6399C116.342 29.1892 117.382 28.5132 118.318 27.6119L122.634 32.2919C121.352 33.7479 119.74 34.8746 117.798 35.6719C115.857 36.4346 113.621 36.8159 111.09 36.8159ZM123.771 36.3999V8.4239H131.519V16.3279L130.427 14.0399C131.259 12.0639 132.594 10.5732 134.431 9.5679C136.268 8.5279 138.504 8.0079 141.139 8.0079V15.4959C140.792 15.4612 140.48 15.4439 140.203 15.4439C139.926 15.4092 139.631 15.3919 139.319 15.3919C137.1 15.3919 135.298 16.0332 133.911 17.3159C132.559 18.5639 131.883 20.5226 131.883 23.1919V36.3999H123.771Z" fill="#333333"/>
</svg>
