<svg width="17" height="16" viewBox="0 0 17 16" fill="none" xmlns="http://www.w3.org/2000/svg">
<path d="M8.5 3.52632C8.5 3.52632 8.5 3.625 7.86667 2.75C7.13333 1.735 6.05 1 4.75 1C2.675 1 1 2.75875 1 4.9375C1 5.75125 1.23333 6.50375 1.63333 7.125C2.30833 8.18375 8.5 15 8.5 15C8.5 15 14.6917 8.18375 15.3667 7.125C15.7667 6.50375 16 5.75125 16 4.9375C16 2.75875 14.325 1 12.25 1C10.95 1 9.86667 1.735 9.13333 2.75C8.5 3.625 8.5 3.52632 8.5 3.52632Z" stroke="#FF3535" stroke-width="2" stroke-linecap="round" stroke-linejoin="round"/>
</svg>
